# xmcd
#
# Track frame offsets: 
#        150
#        16424
#        29219
#        41355
#        53843
#        69570
#        78615
#        89604
#        101203
#        115408
#        128105
#        138350
#        147619
#        159664
#        173232
#        188450
#        200585
#        212621
#        231027
#        243807
#
# Disc length: 3412 seconds
#
# Revision: 0
# Processed by: cddbd v1.5.2PL0 Copyright (c) Steve Scherf et al.
# Submitted via: ExactAudioCopy v1.1
#
DISCID=230d5214
DTITLE=Roscoe Robinson - Why Must It End
DYEAR=2008
DGENRE=Soul
TTITLE0=One More Time
TTITLE1=That's Enough
TTITLE2=Darling, Please Tell Me
TTITLE3=Why Are You Afraid
TTITLE4=Let Me Know
TTITLE5=One Bo-Dillow Years
TTITLE6=Fox Hunting On A Weekend
TTITLE7=You Don't Move Me No More
TTITLE8=Why Must It End
TTITLE9=How Many Times Must I Knock
TTITLE10=I'm Burning And Yearning (For You)
TTITLE11=Standing In The Safety Zone
TTITLE12=You're All I Need
TTITLE13=My Pride Won't Let Me
TTITLE14=Don't Forget The Soldiers (Fighting In Vietnam)
TTITLE15=Tis Yuletide
TTITLE16=That's It
TTITLE17=In Time You'll See
TTITLE18=Leave You In The Arms Of Your Other Man
TTITLE19=Oo Wee Baby I Love You
EXTD=
EXTT0=
EXTT1=
EXTT2=
EXTT3=
EXTT4=
EXTT5=
EXTT6=
EXTT7=
EXTT8=
EXTT9=
EXTT10=
EXTT11=
EXTT12=
EXTT13=
EXTT14=
EXTT15=
EXTT16=
EXTT17=
EXTT18=
EXTT19=
PLAYORDER=
